<?xml version="1.0" encoding="utf-8"?>
<!-- Generator: Adobe Illustrator 25.2.1, SVG Export Plug-In . SVG Version: 6.00 Build 0)  -->
<svg version="1.1" id="Vrstva_1" xmlns="http://www.w3.org/2000/svg" xmlns:xlink="http://www.w3.org/1999/xlink" x="0px" y="0px"
	 viewBox="0 0 411.8 250.1" style="enable-background:new 0 0 411.8 250.1;" xml:space="preserve">
<style type="text/css">
	.st0{fill:#575756;}
	.st1{fill:#DD1037;}
	.st2{fill:#EA5423;}
	.st3{fill:#3EAD5A;}
	.st4{fill:#0092D2;}
	.st5{fill:#F9B226;}
</style>
<g>
	<path class="st0" d="M133.9,200.6c-0.1,0.4-0.2,0.9-0.2,1.4c-12.5-33.8-44.2-85.2-98.1-88.3c0,0,3.8-17.9,33.2-31.3
		c-0.8,3.2-1.5,6-2.6,10.3c-1.2,5-1.3,10.9-0.2,16c0.2,0.8,0.5,3.3,1.7,3.3c1.2,0,1.7-2.7,1.8-3.3c1.6-6.8,2.5-10,4.1-16.7
		c0.9-3.8,1.2-8,0.8-12c6.9-2.7,14.9-5.1,24.4-7.1c-2.4,11.9-4.8,24.1-7.2,35.9c-1,5.1-0.9,10.9,0.4,16c0.2,0.8,0.7,3.3,1.8,3.3
		c1.1,0,1.6-2.8,1.7-3.3c2.7-13.4,5.5-27.5,8.2-41c0.7-3.7,0.9-7.9,0.4-11.8c2.6-0.5,5.2-0.9,8-1.3c6.1-0.9,11.5-1.8,16.4-2.7
		c-3.6,18.2-8.1,41.2-11.5,58.4c-0.5,2.6-1,5.3-1.6,7.9c-1,5.1-0.9,10.9,0.4,16c0.2,0.8,0.7,3.3,1.8,3.3c1.2,0,1.6-2.8,1.7-3.3
		c3.7-18.9,8.9-45,12.6-63.8c0.5-2.6,1-5.3,1.6-7.9c0.7-3.7,0.9-7.7,0.4-11.6c11.2-2.6,19.8-5.8,28.4-10.5
		c-2.5,12.8-5.1,26-7.3,36.8l0.2-0.5l-17,86.5C136.8,186.1,135.4,193.3,133.9,200.6 M184.2,28.2c-1.2-0.4-6.9,8.1-12.3,13.6
		l-0.1,0.1c0.5-4.3,0.2-8.8-0.8-12.9c-0.2-0.8-0.7-3.3-1.8-3.3c-1.2,0-1.6,2.8-1.7,3.3c-1.1,5.4-2.3,11.4-3.5,17.6
		C142.2,58.6,120.8,59,94.1,65c-55.9,12.7-64.7,44-66.1,53.6c-0.2,1.5,0.9,2.8,2.5,2.8c55.5,0.1,91.2,59.8,104.1,96
		c1.3,3.2,2.8,3.7,3.5-0.1c10-50.1,19.7-100.3,29.5-150.5c1.1-5.4,2.1-10.9,3.2-16.3c6.8-5.6,12.4-13.7,13.5-16.8
		C184.7,32.7,186.2,28.8,184.2,28.2"/>
	<path class="st0" d="M215.1,80.1c6,0,9,3,9,3l-2.6,3.1c0,0-2.3-2-6.3-2c-6.2,0-10.1,5.1-10.1,10.4c0,4.3,2.9,6.7,6.7,6.7
		c3.7,0,6.6-2.6,6.6-2.6l0.5-2.7h-3.8l0.8-3.8h7.7l-2.5,12.8h-3.8l0.2-1.2c0.1-0.5,0.2-1,0.2-1h-0.1c0,0-2.5,2.6-7,2.6
		c-5.6,0-10.3-4-10.3-10.5C200.5,86.8,207,80.1,215.1,80.1 M227.8,104.8l3.3-6.2h8.5l0.9,6.2h4.4l-3.7-24.3h-5L223,104.8H227.8z
		 M232.8,95l3.5-6.5c0.7-1.3,1.6-3.8,1.6-3.8h0.1c0,0,0.1,2.4,0.3,3.8l0.9,6.5H232.8z M247.9,104.8h14.9l0.8-3.8H253l4-20.5h-4.4
		L247.9,104.8z M266.1,104.8h15.1l0.7-3.8h-10.7l1.3-6.5h8.2l0.8-3.8h-8.2l1.2-6.4h10.1l0.8-3.8h-14.5L266.1,104.8z M285.8,104.8
		h4.4l1.7-9.1h4.4l3.1,9.1h4.7l-3.3-9c-0.3-0.9-0.6-1.2-0.6-1.2v-0.1c3.7-1.2,5.6-4.8,5.6-8.1c0-2.5-1.2-4.4-3.3-5.3
		c-1-0.4-2.2-0.6-3.5-0.6h-8.6L285.8,104.8z M292.7,91.9l1.5-7.6h4c2,0,3.2,1,3.2,2.8c0,3-2.2,4.8-4.8,4.8H292.7z M308.1,104.8h4.4
		l4.7-24.3h-4.4L308.1,104.8z M318.6,104.8h15.1l0.7-3.8h-10.7l1.3-6.5h8.2l0.8-3.8h-8.2l1.2-6.4h10.1l0.8-3.8h-14.5L318.6,104.8z"
		/>
	<polygon class="st1" points="191.5,163.3 201.8,163.3 204.9,146.9 220.1,146.9 216.9,163.3 227.1,163.3 235.2,121.5 225,121.5 
		221.8,138.2 206.6,138.2 209.9,121.5 199.7,121.5 	"/>
	<path class="st2" d="M232.1,163.3H243l4.2-8.8h13l0.9,8.8h10.2l-5.8-41.7h-11.7L232.1,163.3z M251.2,146.3l4-8.1
		c1.3-2.6,3-7.2,3-7.2h0.1c0,0,0.1,4.6,0.4,7.2l0.8,8.1H251.2z"/>
	<path class="st3" d="M276,163.3h10.2l2.7-14.1h5.1l4.7,14.1h11l-5.4-14.4c-0.6-1.8-1.1-2.5-1.1-2.5v-0.1c6.4-2.5,8.7-9.2,8.7-14.1
		c0-4.7-2.3-8-6.2-9.6c-1.8-0.7-3.9-1-6.1-1h-15.5L276,163.3z M290.6,140.4l2-10.2h4.6c2.6,0,4.3,1.3,4.3,3.7c0,4.1-2.9,6.4-6.5,6.4
		H290.6z"/>
	<polygon class="st4" points="315.7,163.3 325.8,163.3 328.9,147.8 341.6,147.8 343.2,139 330.6,139 332.3,130.3 347.6,130.3 
		349.2,121.5 323.7,121.5 	"/>
	<path class="st5" d="M342.1,163.3H353l4.2-8.8h13l0.9,8.8h10.2l-5.8-41.7h-11.7L342.1,163.3z M361.2,146.3l4-8.1
		c1.3-2.6,3-7.2,3-7.2h0.1c0,0,0.1,4.6,0.4,7.2l0.8,8.1H361.2z"/>
</g>
</svg>
