<?xml version="1.0" encoding="UTF-8" standalone="no"?>
<svg
   xmlns:dc="http://purl.org/dc/elements/1.1/"
   xmlns:cc="http://creativecommons.org/ns#"
   xmlns:rdf="http://www.w3.org/1999/02/22-rdf-syntax-ns#"
   xmlns:svg="http://www.w3.org/2000/svg"
   xmlns="http://www.w3.org/2000/svg"
   xmlns:sodipodi="http://sodipodi.sourceforge.net/DTD/sodipodi-0.dtd"
   xmlns:inkscape="http://www.inkscape.org/namespaces/inkscape"
   version="1.1"
   x="0px"
   y="0px"
   viewBox="0 0 489.77417 464.35205"
   xml:space="preserve"
   id="svg2"
   inkscape:version="0.91 r13725"
   sodipodi:docname="mask_Yuvika_Koul_Noun_Proj.svg"
   width="489.77417"
   height="464.35205"><metadata
     id="metadata18"><rdf:RDF><cc:Work
         rdf:about=""><dc:format>image/svg+xml</dc:format><dc:type
           rdf:resource="http://purl.org/dc/dcmitype/StillImage" /><dc:title></dc:title></cc:Work></rdf:RDF></metadata><defs
     id="defs16" /><sodipodi:namedview
     pagecolor="#ffffff"
     bordercolor="#666666"
     borderopacity="1"
     objecttolerance="10"
     gridtolerance="10"
     guidetolerance="10"
     inkscape:pageopacity="0"
     inkscape:pageshadow="2"
     inkscape:window-width="1600"
     inkscape:window-height="1148"
     id="namedview14"
     showgrid="false"
     fit-margin-top="0"
     fit-margin-left="0"
     fit-margin-right="0"
     fit-margin-bottom="0"
     inkscape:zoom="1.475"
     inkscape:cx="116.81484"
     inkscape:cy="199.664"
     inkscape:window-x="-8"
     inkscape:window-y="-8"
     inkscape:window-maximized="1"
     inkscape:current-layer="svg2" /><style
     type="text/css"
     id="style4">
	.st0{fill:#010101;}
</style><path
     class="st0"
     d="m 250.66162,21.333211 c -11.9,-56 -55.1,13.4 -130,35.9 -77.200003,23.3 -135.300003,-30.6 -117.400003,33.9 37.9,135.899999 126.700003,215.699999 187.800003,196.099999 4.8,-1.5 18,-4.4 22.5,-6.5 3.8,-32.1 11.2,-66.9 25.4,-102.8 11.5,-29.1 20.6,-27.6 34.8,-14.8 1.5,-36.6 -10.5,-82.299999 -23.1,-141.799999 z M 88.661617,136.93321 c -19.1,2.6 -33.4,17.9 -34,13.9 -0.6,-4.1 12.8,-25.9 32,-28.6 19.100003,-2.6 36.800003,15 37.400003,19 0.5,4.1 -16.3,-6.9 -35.400003,-4.3 z m 92.100003,89.8 c -23.8,7.4 -55,-9 -57.9,-18.3 -2.9,-9.3 23.6,-4.8 47.5,-12.2 23.9,-7.4 45.5,-25.9 48.4,-16.6 2.8,9.3 -14.2,39.7 -38,47.1 z m 19.2,-122.6 c -17.4,8.3 -26.4,27.2 -28.2,23.5 -1.8,-3.7 4.4,-28.599999 21.8,-36.899999 17.4,-8.3 39.6,3.1 41.4,6.8 1.7,3.699999 -17.6,-1.7 -35,6.599999 z"
     id="path6"
     inkscape:connector-curvature="0"
     style="fill:#575656" /><path
     class="st0"
     d="m 359.77009,232.12982 c -75.6,-27.9 -89.5,-106 -114,-43.7 -51.7,131.3 -28.9,248.5 31.6,269.7 60.5,21.2 128,-5.7 207.8,-176.3 24.3,-51.9 -52,-22.6 -125.4,-49.7 z m -106.3,27.8 c 0.9,-4 13.9,12.4 32.7,16.7 18.9,4.2 36.5,-5.4 35.6,-1.4 -0.9,4 -19.9,20.1 -38.8,15.9 -18.9,-4.3 -30.4,-27.2 -29.5,-31.2 z m 94.1,152.2 c -3.6,9 -23.7,-11.2 -46.8,-20.5 -23.1,-9.3 -49.9,-7.1 -46.3,-16.1 3.6,-9 36,-22.7 59.2,-13.4 23.1,9.2 37.5,40.9 33.9,50 z m 81.2,-84.1 c -2.1,3.5 -25.1,13.1 -41.8,3.4 -16.7,-9.7 -20.7,-35.1 -18.7,-38.6 2.1,-3.5 9.4,16.1 26.1,25.8 16.7,9.7 36.4,5.8 34.4,9.4 z"
     id="path8"
     inkscape:connector-curvature="0"
     style="fill:#575656" /></svg>